<svg data-v-fde0c5aa="" xmlns="http://www.w3.org/2000/svg" viewBox="0 0 300 300" class="iconAboveSlogan"><!----><defs data-v-fde0c5aa=""><!----></defs><rect data-v-fde0c5aa="" fill="transparent" x="0" y="0" width="300px" height="300px" class="logo-background-square"></rect><defs data-v-fde0c5aa=""><!----></defs><g data-v-fde0c5aa="" id="c2aeb7b4-9014-49f3-9f88-758581c54b96" fill="#000000" transform="matrix(3.9537711610984427,0,0,3.9537711610984427,16.08576651280644,145.93332045362973)"><path d="M0.99 13.78L2.34 13.78L2.34 9.62C2.34 8.74 2.20 7 2.13 6.13L2.17 6.13L2.87 8.39L4.05 11.28L4.83 11.28L5.99 8.39L6.69 6.13L6.75 6.13C6.66 7 6.54 8.74 6.54 9.62L6.54 13.78L7.91 13.78L7.91 4.54L6.19 4.54L4.91 8.15L4.49 9.53L4.44 9.53L3.99 8.15L2.72 4.54L0.99 4.54ZM13.51 13.96C14.52 13.96 15.47 13.59 16.20 13.12L15.65 12.11C15.04 12.49 14.43 12.70 13.72 12.70C12.47 12.70 11.51 11.96 11.41 10.64L16.41 10.64C16.44 10.46 16.48 10.15 16.48 9.84C16.48 7.87 15.34 6.45 13.30 6.45C11.49 6.45 9.76 7.88 9.76 10.21C9.76 12.56 11.42 13.96 13.51 13.96ZM11.40 9.53C11.58 8.34 12.40 7.70 13.33 7.70C14.42 7.70 15.01 8.39 15.01 9.53ZM18.45 13.78L20.05 13.78L20.05 8.89C20.69 8.19 21.15 7.83 21.84 7.83C22.78 7.83 23.13 8.39 23.13 9.56L23.13 13.78L24.74 13.78L24.74 9.35C24.74 7.50 24.01 6.45 22.43 6.45C21.38 6.45 20.61 7.03 19.96 7.71L20.05 6.16L20.05 3.63L18.45 3.63ZM27.52 13.78L29.13 13.78L29.13 9.79C29.83 8.40 30.76 7.88 31.70 7.88C32.23 7.88 32.49 7.95 32.94 8.11L33.29 6.75C32.87 6.55 32.51 6.45 31.95 6.45C30.76 6.45 29.72 7.11 29.02 8.27L28.98 8.27L28.84 6.64L27.52 6.64ZM37.38 13.96C38.32 13.96 39.23 13.45 39.96 12.88L40.01 12.88L40.14 13.78L41.44 13.78L41.44 9.52C41.44 7.56 40.40 6.45 38.50 6.45C37.31 6.45 36.25 6.94 35.64 7.46L36.23 8.53C36.72 8.12 37.42 7.76 38.19 7.76C39.33 7.76 39.79 8.39 39.84 9.21C36.44 9.48 35.08 10.26 35.08 11.87C35.08 13.10 36.05 13.96 37.38 13.96ZM37.87 12.68C37.18 12.68 36.64 12.40 36.64 11.75C36.64 10.95 37.37 10.40 39.84 10.22L39.84 11.79C39.21 12.35 38.56 12.68 37.87 12.68ZM47.10 13.96C48.69 13.96 50.15 12.53 50.15 10.08C50.15 7.88 49.11 6.45 47.33 6.45C46.59 6.45 45.81 6.83 45.21 7.43L45.25 6.16L45.25 3.63L43.65 3.63L43.65 13.78L44.91 13.78L45.05 12.98L45.09 12.98C45.71 13.59 46.45 13.96 47.10 13.96ZM46.77 12.63C46.35 12.63 45.77 12.43 45.25 11.94L45.25 8.68C45.82 8.06 46.37 7.78 46.90 7.78C48.01 7.78 48.50 8.67 48.50 10.11C48.50 11.75 47.75 12.63 46.77 12.63ZM52.36 13.78L58.34 13.78L58.34 12.40L53.97 12.40L53.97 9.65L57.55 9.65L57.55 8.29L53.97 8.29L53.97 5.89L58.20 5.89L58.20 4.54L52.36 4.54ZM63.53 13.96C65.62 13.96 66.75 12.96 66.75 11.75C66.75 10.58 65.72 10.04 64.12 9.60C63.01 9.31 62.19 9.02 62.19 8.50C62.19 8.02 62.57 7.67 63.63 7.67C64.41 7.67 65.11 7.97 65.73 8.39L66.47 7.39C65.77 6.92 64.74 6.45 63.62 6.45C61.68 6.45 60.58 7.35 60.58 8.58C60.58 9.65 61.81 10.28 63.11 10.63C64.51 11.00 65.16 11.34 65.16 11.84C65.16 12.36 64.65 12.73 63.57 12.73C62.51 12.73 61.68 12.38 60.91 11.82L60.17 12.84C61.03 13.44 62.24 13.96 63.53 13.96Z"></path></g><defs data-v-fde0c5aa=""><linearGradient data-v-fde0c5aa="" gradientTransform="rotate(25)" id="b733022a-3ebf-4712-bebb-50243df26b01" x1="0%" y1="0%" x2="100%" y2="0%"><stop data-v-fde0c5aa="" offset="0%" stop-color="#3616AC" stop-opacity="1"></stop><stop data-v-fde0c5aa="" offset="100%" stop-color="#E09BED" stop-opacity="1"></stop></linearGradient></defs><g data-v-fde0c5aa="" id="1a2bf330-4fce-45c6-b046-8a9a10ac5c3c" stroke="none" fill="url(#b733022a-3ebf-4712-bebb-50243df26b01)" transform="matrix(0.7194736091495175,0,0,0.7194736091495175,114.02632022866763,74.85069246751213)"><path d="M50 6.272L12.13 28.137v43.728L50 93.728l37.87-21.863V28.137L50 6.272zm28.438 26.419L51 16.85V9.159L84.898 28.73l-6.46 3.961zM50 59.352l-7.21-4.162v-8.326L50 42.701l7.209 4.162v8.326L50 59.352zm-1-18.384l-6.67 3.851-7.902-4.675L49 31.731v9.237zm-8.21 5.264v8.625l-8 4.451v-17.81l8 4.734zm.708 10.521L49 61.083v9.238l-15.65-9.035 8.148-4.533zM51 61.083l7.502-4.331 8.148 4.534L51 70.321v-9.238zm8.209-6.228v-8.73l.314.513 7.687-4.714v17.383l-8.001-4.452zm-.73-9.921l.335.547L51 40.969v-9.237l14.94 8.625-7.461 4.577zM49 29.422l-16.547 9.553-8.779-5.194L49 19.159v10.263zM30.79 40.315v20.107l-8 4.451V35.582l8 4.733zm.523 22.105L49 72.63v8.212L24.071 66.449l7.242-4.029zM51 72.63l17.687-10.211 7.243 4.03L51 80.842V72.63zm18.21-12.209V40.698l8-4.907v29.081l-8-4.451zm-1.331-21.253L51 29.423V19.159l25.5 14.722-8.621 5.287zM49 16.849L21.699 32.612l-6.579-3.893L49 9.159v7.69zM20.79 34.398v31.588l-6.66 3.705V30.458l6.66 3.94zm1.244 33.185L49 83.15v7.691L15.251 71.357l6.783-3.774zM51 83.15l26.966-15.568 6.783 3.775L51 90.842V83.15zm28.21-17.165V34.564l6.66-4.085v39.212l-6.66-3.706z"></path></g><defs data-v-fde0c5aa=""><!----></defs><g data-v-fde0c5aa="" id="3f8322ad-f009-47dd-8c52-55485923ff49" fill="#000000" transform="matrix(1.069606728162715,0,0,1.069606728162715,52.16842191171942,205.04190366893917)"><path d="M1.15 6.34L0.31 6.15L0.36 5.89L3.05 5.89L3.03 6.11L1.90 6.32L3.86 13.18L5.90 6.18L6.21 6.14L8.15 13.18L10.36 6.36L9.08 6.13L9.12 5.89L11.74 5.89L11.72 6.14L10.91 6.34L8.22 14.49L7.77 14.57L5.94 7.63L3.92 14.49L3.44 14.57L1.15 6.34ZM20.66 6.36L19.43 6.18L19.48 5.89L25.68 5.89L25.46 8.07L25.15 8.03L25.02 6.24L21.37 6.24L21.37 9.89L23.66 9.89L23.91 8.94L24.28 8.89L24.06 11.55L23.71 11.61L23.60 10.26L21.37 10.26L21.37 14.03L25.21 14.03L25.72 12.19L26.00 12.26L25.79 14.40L19.46 14.40L19.50 14.11L20.66 13.90L20.66 6.36ZM35.60 6.15L35.60 9.75L37.72 9.75L37.72 9.75Q38.18 9.45 38.51 9.01L38.51 9.01L38.51 9.01Q38.85 8.57 38.85 8.02L38.85 8.02L38.85 8.02Q38.85 7.08 38.21 6.59L38.21 6.59L38.21 6.59Q37.57 6.11 36.44 6.11L36.44 6.11L36.44 6.11Q35.79 6.11 35.60 6.15L35.60 6.15ZM35.60 10.08L35.60 14.03L37.28 14.03L37.28 14.03Q37.92 14.03 38.38 13.85L38.38 13.85L38.38 13.85Q38.83 13.68 39.08 13.38L39.08 13.38L39.08 13.38Q39.32 13.08 39.43 12.74L39.43 12.74L39.43 12.74Q39.54 12.41 39.54 12.02L39.54 12.02L39.54 12.02Q39.54 11.68 39.43 11.36L39.43 11.36L39.43 11.36Q39.32 11.04 39.08 10.74L39.08 10.74L39.08 10.74Q38.84 10.45 38.40 10.26L38.40 10.26L38.40 10.26Q37.95 10.08 37.35 10.08L37.35 10.08L35.60 10.08ZM36.61 14.40L33.70 14.40L33.76 14.11L34.91 13.90L34.91 6.51L33.74 6.36L33.80 6.12L33.80 6.12Q33.93 6.10 34.36 6.03L34.36 6.03L34.36 6.03Q34.80 5.96 34.98 5.94L34.98 5.94L34.98 5.94Q35.15 5.91 35.51 5.87L35.51 5.87L35.51 5.87Q35.86 5.83 36.17 5.82L36.17 5.82L36.17 5.82Q36.48 5.80 36.83 5.80L36.83 5.80L36.83 5.80Q38.12 5.80 38.83 6.38L38.83 6.38L38.83 6.38Q39.55 6.96 39.55 7.79L39.55 7.79L39.55 7.79Q39.55 8.98 38.13 9.76L38.13 9.76L38.13 9.80L38.13 9.80Q39.12 9.86 39.69 10.46L39.69 10.46L39.69 10.46Q40.26 11.05 40.26 11.80L40.26 11.80L40.26 11.80Q40.26 12.22 40.16 12.58L40.16 12.58L40.16 12.58Q40.06 12.95 39.80 13.29L39.80 13.29L39.80 13.29Q39.53 13.63 39.13 13.87L39.13 13.87L39.13 13.87Q38.73 14.11 38.08 14.25L38.08 14.25L38.08 14.25Q37.43 14.40 36.61 14.40L36.61 14.40ZM59.78 6.19L59.78 14.03L61.01 14.03L61.01 14.03Q62.82 14.03 63.91 12.95L63.91 12.95L63.91 12.95Q65.01 11.87 65.01 10.12L65.01 10.12L65.01 10.12Q65.01 8.20 63.96 7.18L63.96 7.18L63.96 7.18Q62.90 6.16 60.97 6.16L60.97 6.16L60.97 6.16Q59.97 6.16 59.78 6.19L59.78 6.19ZM60.83 14.40L57.88 14.40L57.93 14.11L59.09 13.90L59.09 6.51L57.91 6.36L57.98 6.12L57.98 6.12Q60.07 5.79 61.22 5.79L61.22 5.79L61.22 5.79Q62.19 5.79 62.96 6.03L62.96 6.03L62.96 6.03Q63.74 6.26 64.25 6.66L64.25 6.66L64.25 6.66Q64.76 7.05 65.11 7.59L65.11 7.59L65.11 7.59Q65.45 8.13 65.60 8.71L65.60 8.71L65.60 8.71Q65.75 9.29 65.75 9.92L65.75 9.92L65.75 9.92Q65.75 10.64 65.58 11.28L65.58 11.28L65.58 11.28Q65.41 11.93 65.02 12.50L65.02 12.50L65.02 12.50Q64.64 13.08 64.08 13.49L64.08 13.49L64.08 13.49Q63.51 13.91 62.68 14.15L62.68 14.15L62.68 14.15Q61.85 14.40 60.83 14.40L60.83 14.40ZM74.69 6.36L73.47 6.18L73.51 5.89L79.71 5.89L79.50 8.07L79.18 8.03L79.05 6.24L75.40 6.24L75.40 9.89L77.69 9.89L77.94 8.94L78.31 8.89L78.09 11.55L77.74 11.61L77.63 10.26L75.40 10.26L75.40 14.03L79.24 14.03L79.75 12.19L80.03 12.26L79.82 14.40L73.49 14.40L73.53 14.11L74.69 13.90L74.69 6.36ZM88.72 6.34L87.72 6.14L87.75 5.89L90.64 5.89L90.62 6.14L89.47 6.32L91.83 13.30L94.41 6.34L93.14 6.14L93.16 5.89L95.83 5.89L95.80 6.14L94.92 6.32L91.90 14.47L91.55 14.57L88.72 6.34ZM104.75 6.36L103.52 6.18L103.57 5.89L109.76 5.89L109.55 8.07L109.24 8.03L109.11 6.24L105.46 6.24L105.46 9.89L107.75 9.89L108.00 8.94L108.37 8.89L108.14 11.55L107.80 11.61L107.69 10.26L105.46 10.26L105.46 14.03L109.30 14.03L109.81 12.19L110.09 12.26L109.88 14.40L103.54 14.40L103.58 14.11L104.75 13.90L104.75 6.36ZM123.96 14.40L117.81 14.40L117.84 14.11L119 13.90L119 6.34L117.82 6.17L117.85 5.90L120.96 5.90L120.93 6.17L119.73 6.32L119.73 14.03L123.35 14.03L123.88 12.09L124.18 12.14L123.96 14.40ZM132.68 9.75L132.68 9.75L132.68 9.75Q132.68 11.03 133.04 12.01L133.04 12.01L133.04 12.01Q133.40 13.00 134.12 13.57L134.12 13.57L134.12 13.57Q134.84 14.14 135.82 14.14L135.82 14.14L135.82 14.14Q136.39 14.14 136.88 13.92L136.88 13.92L136.88 13.92Q137.38 13.70 137.72 13.33L137.72 13.33L137.72 13.33Q138.07 12.96 138.31 12.49L138.31 12.49L138.31 12.49Q138.55 12.01 138.67 11.50L138.67 11.50L138.67 11.50Q138.78 10.99 138.78 10.48L138.78 10.48L138.78 10.48Q138.78 8.50 137.93 7.29L137.93 7.29L137.93 7.29Q137.08 6.07 135.63 6.07L135.63 6.07L135.63 6.07Q135.05 6.07 134.56 6.28L134.56 6.28L134.56 6.28Q134.07 6.49 133.72 6.85L133.72 6.85L133.72 6.85Q133.38 7.21 133.14 7.69L133.14 7.69L133.14 7.69Q132.90 8.16 132.79 8.69L132.79 8.69L132.79 8.69Q132.68 9.21 132.68 9.75ZM131.93 10.16L131.93 10.16L131.93 10.16Q131.93 8.16 133.02 6.92L133.02 6.92L133.02 6.92Q134.12 5.69 135.96 5.69L135.96 5.69L135.96 5.69Q137.09 5.69 137.91 6.27L137.91 6.27L137.91 6.27Q138.73 6.86 139.13 7.84L139.13 7.84L139.13 7.84Q139.52 8.83 139.52 10.11L139.52 10.11L139.52 10.11Q139.52 10.75 139.37 11.38L139.37 11.38L139.37 11.38Q139.22 12.00 138.90 12.58L138.90 12.58L138.90 12.58Q138.57 13.17 138.11 13.61L138.11 13.61L138.11 13.61Q137.65 14.05 136.97 14.32L136.97 14.32L136.97 14.32Q136.29 14.58 135.49 14.58L135.49 14.58L135.49 14.58Q134.44 14.58 133.61 13.98L133.61 13.98L133.61 13.98Q132.79 13.37 132.36 12.37L132.36 12.37L132.36 12.37Q131.93 11.37 131.93 10.16ZM150.66 14.40L147.25 14.40L147.28 14.11L148.36 13.90L148.36 6.51L147.25 6.36L147.31 6.12L147.31 6.12Q147.49 6.09 147.93 6.02L147.93 6.02L147.93 6.02Q148.38 5.94 148.61 5.91L148.61 5.91L148.61 5.91Q148.84 5.88 149.25 5.84L149.25 5.84L149.25 5.84Q149.66 5.81 150.08 5.81L150.08 5.81L150.08 5.81Q150.77 5.81 151.35 5.96L151.35 5.96L151.35 5.96Q151.94 6.10 152.40 6.40L152.40 6.40L152.40 6.40Q152.87 6.69 153.13 7.18L153.13 7.18L153.13 7.18Q153.38 7.66 153.38 8.29L153.38 8.29L153.38 8.29Q153.38 8.90 153.10 9.43L153.10 9.43L153.10 9.43Q152.82 9.97 152.36 10.33L152.36 10.33L152.36 10.33Q151.90 10.69 151.30 10.90L151.30 10.90L151.30 10.90Q150.70 11.10 150.06 11.10L150.06 11.10L150.06 11.10Q149.79 11.10 149.72 11.09L149.72 11.09L149.65 10.80L150.02 10.78L150.02 10.78Q150.68 10.75 151.18 10.55L151.18 10.55L151.18 10.55Q151.68 10.36 151.97 10.03L151.97 10.03L151.97 10.03Q152.26 9.70 152.40 9.30L152.40 9.30L152.40 9.30Q152.54 8.90 152.54 8.43L152.54 8.43L152.54 8.43Q152.54 7.98 152.37 7.57L152.37 7.57L152.37 7.57Q152.20 7.16 151.88 6.83L151.88 6.83L151.88 6.83Q151.56 6.50 151.04 6.31L151.04 6.31L151.04 6.31Q150.51 6.11 149.86 6.11L149.86 6.11L149.11 6.15L149.11 13.95L150.71 14.08L150.66 14.40ZM162.30 6.36L161.08 6.18L161.12 5.89L167.32 5.89L167.10 8.07L166.79 8.03L166.66 6.24L163.01 6.24L163.01 9.89L165.30 9.89L165.55 8.94L165.92 8.89L165.70 11.55L165.35 11.61L165.24 10.26L163.01 10.26L163.01 14.03L166.85 14.03L167.36 12.19L167.64 12.26L167.43 14.40L161.10 14.40L161.14 14.11L162.30 13.90L162.30 6.36ZM177.17 6.18L177.17 10.11L178.72 10.11L178.72 10.11Q179.40 9.86 179.86 9.28L179.86 9.28L179.86 9.28Q180.32 8.70 180.32 8.02L180.32 8.02L180.32 8.02Q180.32 7.11 179.70 6.63L179.70 6.63L179.70 6.63Q179.08 6.15 177.99 6.15L177.99 6.15L177.17 6.18ZM178.54 14.40L175.35 14.40L175.40 14.11L176.46 13.90L176.46 6.51L175.37 6.37L175.43 6.13L175.43 6.13Q177.26 5.83 178.34 5.83L178.34 5.83L178.34 5.83Q179.10 5.83 179.71 6.05L179.71 6.05L179.71 6.05Q180.32 6.27 180.69 6.73L180.69 6.73L180.69 6.73Q181.07 7.19 181.07 7.83L181.07 7.83L181.07 7.83Q181.07 8.57 180.64 9.14L180.64 9.14L180.64 9.14Q180.22 9.72 179.18 10.23L179.18 10.23L179.18 10.23L180.50 12.19L180.50 12.19Q181.21 13.23 181.56 13.58L181.56 13.58L181.56 13.58Q181.90 13.92 182.29 14.05L182.29 14.05L182.62 14.16L182.57 14.42L182.57 14.42Q182.28 14.52 181.94 14.52L181.94 14.52L181.94 14.52Q181.65 14.52 181.40 14.40L181.40 14.40L181.40 14.40Q181.15 14.28 180.90 14.01L180.90 14.01L180.90 14.01Q180.66 13.75 180.48 13.48L180.48 13.48L180.48 13.48Q180.29 13.22 180.02 12.77L180.02 12.77L178.63 10.49L177.17 10.49L177.17 13.95L178.61 14.08L178.54 14.40Z"></path></g></svg>