<svg data-v-423bf9ae="" xmlns="http://www.w3.org/2000/svg" viewBox="0 0 381.95548473520995 60" class="font"><!----><!----><!----><g data-v-423bf9ae="" id="146e4b74-df82-4e83-99f7-a3d5fca86662" fill="black" transform="matrix(5.808325309113267,0,0,5.808325309113267,-5.750241091797335,-21.08422153679124)"><path d="M0.99 13.78L2.34 13.78L2.34 9.62C2.34 8.74 2.20 7 2.13 6.13L2.17 6.13L2.87 8.39L4.05 11.28L4.83 11.28L5.99 8.39L6.69 6.13L6.75 6.13C6.66 7 6.54 8.74 6.54 9.62L6.54 13.78L7.91 13.78L7.91 4.54L6.19 4.54L4.91 8.15L4.49 9.53L4.44 9.53L3.99 8.15L2.72 4.54L0.99 4.54ZM13.51 13.96C14.52 13.96 15.47 13.59 16.20 13.12L15.65 12.11C15.04 12.49 14.43 12.70 13.72 12.70C12.47 12.70 11.51 11.96 11.41 10.64L16.41 10.64C16.44 10.46 16.48 10.15 16.48 9.84C16.48 7.87 15.34 6.45 13.30 6.45C11.49 6.45 9.76 7.88 9.76 10.21C9.76 12.56 11.42 13.96 13.51 13.96ZM11.40 9.53C11.58 8.34 12.40 7.70 13.33 7.70C14.42 7.70 15.01 8.39 15.01 9.53ZM18.45 13.78L20.05 13.78L20.05 8.89C20.69 8.19 21.15 7.83 21.84 7.83C22.78 7.83 23.13 8.39 23.13 9.56L23.13 13.78L24.74 13.78L24.74 9.35C24.74 7.50 24.01 6.45 22.43 6.45C21.38 6.45 20.61 7.03 19.96 7.71L20.05 6.16L20.05 3.63L18.45 3.63ZM27.52 13.78L29.13 13.78L29.13 9.79C29.83 8.40 30.76 7.88 31.70 7.88C32.23 7.88 32.49 7.95 32.94 8.11L33.29 6.75C32.87 6.55 32.51 6.45 31.95 6.45C30.76 6.45 29.72 7.11 29.02 8.27L28.98 8.27L28.84 6.64L27.52 6.64ZM37.38 13.96C38.32 13.96 39.23 13.45 39.96 12.88L40.01 12.88L40.14 13.78L41.44 13.78L41.44 9.52C41.44 7.56 40.40 6.45 38.50 6.45C37.31 6.45 36.25 6.94 35.64 7.46L36.23 8.53C36.72 8.12 37.42 7.76 38.19 7.76C39.33 7.76 39.79 8.39 39.84 9.21C36.44 9.48 35.08 10.26 35.08 11.87C35.08 13.10 36.05 13.96 37.38 13.96ZM37.87 12.68C37.18 12.68 36.64 12.40 36.64 11.75C36.64 10.95 37.37 10.40 39.84 10.22L39.84 11.79C39.21 12.35 38.56 12.68 37.87 12.68ZM47.10 13.96C48.69 13.96 50.15 12.53 50.15 10.08C50.15 7.88 49.11 6.45 47.33 6.45C46.59 6.45 45.81 6.83 45.21 7.43L45.25 6.16L45.25 3.63L43.65 3.63L43.65 13.78L44.91 13.78L45.05 12.98L45.09 12.98C45.71 13.59 46.45 13.96 47.10 13.96ZM46.77 12.63C46.35 12.63 45.77 12.43 45.25 11.94L45.25 8.68C45.82 8.06 46.37 7.78 46.90 7.78C48.01 7.78 48.50 8.67 48.50 10.11C48.50 11.75 47.75 12.63 46.77 12.63ZM52.36 13.78L58.34 13.78L58.34 12.40L53.97 12.40L53.97 9.65L57.55 9.65L57.55 8.29L53.97 8.29L53.97 5.89L58.20 5.89L58.20 4.54L52.36 4.54ZM63.53 13.96C65.62 13.96 66.75 12.96 66.75 11.75C66.75 10.58 65.72 10.04 64.12 9.60C63.01 9.31 62.19 9.02 62.19 8.50C62.19 8.02 62.57 7.67 63.63 7.67C64.41 7.67 65.11 7.97 65.73 8.39L66.47 7.39C65.77 6.92 64.74 6.45 63.62 6.45C61.68 6.45 60.58 7.35 60.58 8.58C60.58 9.65 61.81 10.28 63.11 10.63C64.51 11.00 65.16 11.34 65.16 11.84C65.16 12.36 64.65 12.73 63.57 12.73C62.51 12.73 61.68 12.38 60.91 11.82L60.17 12.84C61.03 13.44 62.24 13.96 63.53 13.96Z"></path></g><!----><!----></svg>